<?xml version="1.0" standalone="no"?>
<!DOCTYPE svg PUBLIC "-//W3C//DTD SVG 20010904//EN"
 "http://www.w3.org/TR/2001/REC-SVG-20010904/DTD/svg10.dtd">
<svg version="1.0" xmlns="http://www.w3.org/2000/svg"
 width="512.000000pt" height="512.000000pt" viewBox="0 0 512.000000 512.000000"
 preserveAspectRatio="xMidYMid meet">
<metadata>
Created by potrace 1.14, written by Peter Selinger 2001-2017
</metadata>
<g transform="translate(0.000000,512.000000) scale(0.100000,-0.100000)"
fill="#000000" stroke="none">
<path d="M3155 5103 c-75 -39 -83 -55 -161 -323 -31 -107 -57 -196 -59 -197
-1 -3 -47 5 -135 22 -86 17 -271 22 -385 12 -562 -53 -1052 -415 -1278 -942
-37 -88 -84 -245 -86 -287 -1 -15 -10 -18 -50 -18 -57 0 -108 -30 -130 -75
-23 -48 -22 -213 2 -263 24 -53 81 -82 158 -82 l55 0 28 -134 c15 -74 29 -147
32 -163 3 -15 23 -118 46 -228 22 -110 42 -209 44 -220 2 -11 8 -42 14 -70 13
-63 19 -93 25 -125 2 -14 14 -72 26 -130 11 -58 23 -114 25 -125 12 -63 48
-239 59 -295 8 -36 17 -81 20 -100 3 -19 10 -53 15 -75 5 -22 11 -53 14 -70 3
-16 8 -39 10 -50 7 -35 76 -379 81 -405 7 -36 36 -178 46 -230 5 -25 12 -58
15 -75 2 -16 7 -37 9 -45 2 -8 7 -31 10 -50 13 -80 36 -163 54 -198 25 -47 84
-103 141 -133 l45 -24 710 0 c687 0 712 1 755 20 56 25 115 77 146 131 21 35
47 132 68 249 3 17 8 39 10 50 10 51 129 642 132 658 2 15 36 182 80 399 2 13
6 34 9 48 2 14 18 93 35 175 17 83 33 161 35 175 3 14 7 34 9 45 2 11 14 70
26 130 12 61 24 119 26 130 5 21 22 104 29 145 3 14 7 36 10 50 5 21 18 89 40
200 6 34 34 169 41 200 2 14 10 51 15 83 l11 57 54 0 c30 0 56 0 59 0 18 -2
85 47 100 72 28 49 29 216 1 271 -26 51 -71 79 -130 79 -44 0 -45 0 -51 39 -4
21 -7 42 -7 46 -1 17 -69 202 -98 267 -44 99 -124 228 -199 321 -83 104 -138
158 -261 258 -40 33 -164 114 -201 131 l-36 17 18 64 c10 36 20 68 23 73 3 5
7 19 10 33 2 13 23 84 45 158 23 74 41 149 41 167 0 123 -140 213 -245 157z"/>
</g>
</svg>
